<svg xmlns="http://www.w3.org/2000/svg" version="1.1" xmlns:xlink="http://www.w3.org/1999/xlink" width="512" height="512" x="0" y="0" viewBox="0 0 180 180" style="enable-background:new 0 0 512 512" xml:space="preserve" class=""><g><path d="M154.989.983H24.992C11.751.983.979 11.755.979 24.996v129.997c0 13.24 10.772 24.012 24.013 24.012h129.997c13.241 0 24.013-10.772 24.013-24.012V24.996C179.001 11.755 168.229.983 154.989.983zm16.012 154.009c0 8.829-7.183 16.012-16.013 16.012H24.992c-8.83 0-16.013-7.183-16.013-16.012V24.996c0-8.83 7.183-16.013 16.013-16.013h129.997c8.83 0 16.013 7.183 16.013 16.013v129.996z" fill="#ff7162" opacity="1" data-original="#000000" class=""></path><path d="M132.992 112.895H46.989a4 4 0 0 0 0 8h86.003a4 4 0 0 0 0-8zM132.992 85.994H46.989a4 4 0 0 0 0 8h86.003a4 4 0 0 0 0-8zM132.992 59.093H46.989a4 4 0 0 0 0 8h86.003a4 4 0 0 0 0-8z" fill="#ff7162" opacity="1" data-original="#000000" class=""></path></g></svg>